# xmcd
#
# Track frame offsets: 
#        150
#        13826
#        28098
#        42478
#        55312
#        68668
#        83080
#        94317
#        109256
#        122004
#        135412
#        149086
#        162562
#        173896
#        189373
#        203888
#        216907
#        230188
#        246591
#        260668
#        273717
#        286925
#
# Disc length: 4005 seconds
#
# Revision: 4
# Processed by: cddbd v1.5.2PL0 Copyright (c) Steve Scherf et al.
# Submitted via: ExactAudioCopy v0.95b4
#
DISCID=600fa316
DTITLE=Various Artist - The Roots Of Canned Heat
DYEAR=1900
DGENRE=Roots
TTITLE0=Hambone Willie Newbern/Roll And Tumble Blues 
TTITLE1=William Harris/Bullfrog Blues 
TTITLE2=St. Louis Jimmy Oden/Goin' Down Slow 
TTITLE3=Robert Petway/Catfish Blues 
TTITLE4=Robert Johnson/Dust My Broom 
TTITLE5=Tommy Johnson/Big Road Blues 
TTITLE6=Statesboro' Blues /
TTITLE7=Casey Bill Weldon/Turpentine Blues 
TTITLE8=Tommy McClennan/Whiskey Headed Man 
TTITLE9=Charley Patton/Pony Blues 
TTITLE10=Barefoot Bill/Squabblin' Blues 
TTITLE11=Skip James/Devil Got My Woman 
TTITLE12=Tampa Red/It Hurts Me Too 
TTITLE13=Henry Thomas/Bulldoze Blues 
TTITLE14=Henry Sims/Tell Me Man 
TTITLE15=Two Poor Boys/Two White Horses 
TTITLE16=Cripple Clarence Lofton/Streamline Train 
TTITLE17=Tommy Johnson/Canned Heat Blues 
TTITLE18=Charley Patton/Shake It, Break It 
TTITLE19=Arthur Crudup/That's All Right Mama 
TTITLE20=Charley Patton/34 Blues 
TTITLE21=Willie Brown/Future Blues 
EXTD=noted by AleX
EXTT0=
EXTT1=
EXTT2=
EXTT3=
EXTT4=
EXTT5=
EXTT6=
EXTT7=
EXTT8=
EXTT9=
EXTT10=
EXTT11=
EXTT12=
EXTT13=
EXTT14=
EXTT15=
EXTT16=
EXTT17=
EXTT18=
EXTT19=
EXTT20=
EXTT21=
PLAYORDER=
